HIERARCHY
ROOT pelvis
{
	OFFSET 0.000000 0.000000 0.000000
	CHANNELS 6 Xposition Yposition Zposition Xrotation Yrotation Zrotation
	JOINT l_hip
	{
		OFFSET 0.195211 -0.245059 -0.022011
		CHANNELS 3 Xrotation Yrotation Zrotation
		JOINT l_knee
		{
			OFFSET 0.083896 -0.996307 -0.018298
			CHANNELS 3 Xrotation Yrotation Zrotation
			JOINT l_ankle
			{
				OFFSET -0.031606 -1.048662 -0.119000
				CHANNELS 3 Xrotation Yrotation Zrotation
				JOINT l_foot
				{
					OFFSET 0.063841 -0.149483 0.312863
					CHANNELS 3 Xrotation Yrotation Zrotation
					End Site
					{
						OFFSET 0.000000 0.000000 0.000000
					}
				}
			}
		}
	}
	JOINT r_hip
	{
		OFFSET -0.188785 -0.243354 -0.013119
		CHANNELS 3 Xrotation Yrotation Zrotation
		JOINT r_knee
		{
			OFFSET -0.098896 -1.013926 -0.025127
			CHANNELS 3 Xrotation Yrotation Zrotation
			JOINT r_ankle
			{
				OFFSET 0.038376 -1.049454 -0.114596
				CHANNELS 3 Xrotation Yrotation Zrotation
				JOINT r_foot
				{
					OFFSET -0.060300 -0.126955 0.322518
					CHANNELS 3 Xrotation Yrotation Zrotation
					End Site
					{
						OFFSET 0.000000 0.000000 0.000000
					}
				}
			}
		}
	}
	JOINT spine1
	{
		OFFSET -0.006861 0.282462 -0.060688
		CHANNELS 3 Xrotation Yrotation Zrotation
		JOINT spine2
		{
			OFFSET 0.009796 0.349212 -0.004686
			CHANNELS 3 Xrotation Yrotation Zrotation
			JOINT spine3
			{
				OFFSET 0.005545 0.134239 0.076232
				CHANNELS 3 Xrotation Yrotation Zrotation
				JOINT neck
				{
					OFFSET -0.005369 0.569656 -0.136135
					CHANNELS 3 Xrotation Yrotation Zrotation
					JOINT head
					{
						OFFSET 0.009621 0.170484 0.137338
						CHANNELS 3 Xrotation Yrotation Zrotation
						End Site
						{
							OFFSET 0.000000 0.000000 0.000000
						}
					}
				}
				JOINT l_collar
				{
					OFFSET 0.205981 0.322192 -0.100872
					CHANNELS 3 Xrotation Yrotation Zrotation
					JOINT l_shoulder
					{
						OFFSET 0.233388 0.086823 -0.019950
						CHANNELS 3 Xrotation Yrotation Zrotation
						JOINT l_elbow
						{
							OFFSET 0.687295 -0.032736 -0.075278
							CHANNELS 3 Xrotation Yrotation Zrotation
							JOINT l_wrist
							{
								OFFSET 0.651109 0.024639 0.000120
								CHANNELS 3 Xrotation Yrotation Zrotation
								JOINT l_hand
								{
									OFFSET 0.217934 -0.026487 -0.036124
									CHANNELS 3 Xrotation Yrotation Zrotation
									End Site
									{
										OFFSET 0.000000 0.000000 0.000000
									}
								}
							}
						}
					}
				}
				JOINT r_collar
				{
					OFFSET -0.210726 0.316244 -0.114374
					CHANNELS 3 Xrotation Yrotation Zrotation
					JOINT r_shoulder
					{
						OFFSET -0.244017 0.089684 -0.026814
						CHANNELS 3 Xrotation Yrotation Zrotation
						JOINT r_elbow
						{
							OFFSET -0.672913 -0.035979 -0.055153
							CHANNELS 3 Xrotation Yrotation Zrotation
							JOINT r_wrist
							{
								OFFSET -0.670689 0.023586 -0.009661
								CHANNELS 3 Xrotation Yrotation Zrotation
								JOINT r_hand
								{
									OFFSET -0.219937 -0.019827 -0.028502
									CHANNELS 3 Xrotation Yrotation Zrotation
									End Site
									{
										OFFSET 0.000000 0.000000 0.000000
									}
								}
							}
						}
					}
				}
			}
		}
	}
}
MOTION
Frames: 11
Frame Time: 0.016667
0.000000 0.000000 0.000000 0.000000 0.000000 0.000000 -15.264577 1.679950 26.729117 11.586731 0.270669 0.159814 0.000000 0.000000 0.000000 0.000000 0.000000 0.000000 -32.502077 4.874140 -45.671848 131.233465 6.462451 0.774954 0.000000 0.000000 0.000000 0.000000 0.000000 0.000000 9.730685 0.028111 6.005127 -4.789067 10.583813 8.597096 -1.262487 2.779589 4.725697 4.325131 -28.508417 12.786842 3.542404 -17.239512 5.474294 4.604712 14.833962 -7.302236 -17.335361 -19.046732 -52.795487 116.107993 -40.899680 149.837293 0.000000 0.000000 0.000000 0.000000 0.000000 0.000000 1.802886 8.109861 11.597333 -5.178916 35.370622 60.781745 72.880363 60.229323 -64.788756 0.000000 0.000000 0.000000 0.000000 0.000000 0.000000 
0.000000 0.000000 0.000000 0.000000 0.000000 0.000000 -15.112559 1.771792 26.857736 11.814659 0.305810 0.232435 0.000000 0.000000 0.000000 0.000000 0.000000 0.000000 -32.949432 5.277507 -45.638434 129.120769 6.160989 1.006392 0.000000 0.000000 0.000000 0.000000 0.000000 0.000000 9.825485 -0.067200 6.181280 -4.800286 10.658765 8.537160 -1.152392 2.757824 4.756278 4.089702 -28.183973 12.837704 3.639979 -17.062074 5.423185 4.668500 14.901874 -7.333538 -17.333462 -18.855380 -52.344497 116.157459 -41.089335 149.788458 0.000000 0.000000 0.000000 0.000000 0.000000 0.000000 1.823362 8.123614 11.630593 -5.084822 35.383897 60.618711 73.062384 60.350309 -65.054932 0.000000 0.000000 0.000000 0.000000 0.000000 0.000000 
0.000000 0.000000 0.000000 0.000000 0.000000 0.000000 -15.006466 1.854535 27.052061 12.127663 0.341488 0.294917 0.000000 0.000000 0.000000 0.000000 0.000000 0.000000 -33.384448 5.742146 -45.597774 126.881607 5.800724 1.167591 0.000000 0.000000 0.000000 0.000000 0.000000 0.000000 9.921630 -0.173429 6.331736 -4.800743 10.729618 8.479256 -1.019384 2.738968 4.794297 3.879249 -27.848974 12.925053 3.770803 -17.003775 5.386871 4.743408 15.025333 -7.314768 -17.407328 -18.626900 -51.977574 116.204252 -41.244876 149.843972 0.000000 0.000000 0.000000 0.000000 0.000000 0.000000 1.831911 8.100135 11.680811 -5.101297 35.380213 60.644048 73.051680 60.392398 -65.187572 0.000000 0.000000 0.000000 0.000000 0.000000 0.000000 
0.000000 0.000000 0.000000 0.000000 0.000000 0.000000 -14.922762 1.938670 27.317674 12.517226 0.369173 0.406313 0.000000 0.000000 0.000000 0.000000 0.000000 0.000000 -33.853105 6.321470 -45.457222 124.711192 5.481319 1.241138 0.000000 0.000000 0.000000 0.000000 0.000000 0.000000 10.062687 -0.275228 6.447910 -4.782140 10.818643 8.449939 -0.932027 2.742973 4.840777 3.803936 -27.527056 13.031788 3.909641 -17.065353 5.366847 4.819032 15.134464 -7.337608 -17.418334 -18.367055 -51.532912 116.132322 -41.331975 149.895573 0.000000 0.000000 0.000000 0.000000 0.000000 0.000000 1.890788 8.102339 11.822960 -5.092309 35.301174 60.586518 73.167625 60.377463 -65.525051 0.000000 0.000000 0.000000 0.000000 0.000000 0.000000 
0.000000 0.000000 0.000000 0.000000 0.000000 0.000000 -14.809620 1.993655 27.637299 12.865458 0.461856 0.518997 0.000000 0.000000 0.000000 0.000000 0.000000 0.000000 -34.289938 6.921294 -45.341652 122.662045 5.013458 1.343858 0.000000 0.000000 0.000000 0.000000 0.000000 0.000000 10.250498 -0.397924 6.490537 -4.792434 10.912741 8.431940 -0.862046 2.724346 4.913713 3.792731 -27.285090 13.175621 4.115117 -17.082383 5.373517 4.961878 15.345339 -7.334800 -17.483378 -18.106532 -51.297160 116.039051 -41.352713 150.073943 0.000000 0.000000 0.000000 0.000000 0.000000 0.000000 1.870506 8.006572 11.926770 -5.146219 35.304708 60.696622 72.984529 60.407649 -65.570145 0.000000 0.000000 0.000000 0.000000 0.000000 0.000000 
0.000000 0.000000 0.000000 0.000000 0.000000 0.000000 -14.776994 1.994359 28.021150 13.244712 0.526308 0.686710 0.000000 0.000000 0.000000 0.000000 0.000000 0.000000 -34.867595 7.564220 -45.235555 120.702956 4.660254 1.328565 0.000000 0.000000 0.000000 0.000000 0.000000 0.000000 10.442185 -0.561972 6.579426 -4.780239 11.019995 8.421637 -0.765132 2.657002 4.980565 3.669623 -27.117364 13.270856 4.341981 -17.075421 5.333644 5.173052 15.614866 -7.466002 -17.657478 -17.777648 -51.114447 116.035127 -41.211826 150.432077 0.000000 0.000000 0.000000 0.000000 0.000000 0.000000 1.882192 7.906584 12.142633 -5.203122 35.307087 60.747785 72.851730 60.491540 -65.655577 0.000000 0.000000 0.000000 0.000000 0.000000 0.000000 
0.000000 0.000000 0.000000 0.000000 0.000000 0.000000 -14.776131 1.991327 28.457421 13.601720 0.687775 0.835012 0.000000 0.000000 0.000000 0.000000 0.000000 0.000000 -35.569850 8.278703 -45.216999 118.801114 4.316048 1.259530 0.000000 0.000000 0.000000 0.000000 0.000000 0.000000 10.688808 -0.744344 6.655312 -4.815657 11.157536 8.403151 -0.664793 2.578585 5.043051 3.572541 -27.074792 13.312537 4.575641 -16.946682 5.332735 5.400981 15.972366 -7.605948 -18.017002 -17.512776 -51.129401 115.997575 -40.953669 150.913529 0.000000 0.000000 0.000000 0.000000 0.000000 0.000000 1.913359 7.715733 12.328597 -5.334539 35.387736 60.974928 72.636692 60.516869 -65.722972 0.000000 0.000000 0.000000 0.000000 0.000000 0.000000 
0.000000 0.000000 0.000000 0.000000 0.000000 0.000000 -14.779677 2.091236 28.989693 13.847330 0.841173 0.943370 0.000000 0.000000 0.000000 0.000000 0.000000 0.000000 -36.447542 9.011436 -45.285501 116.759359 4.083094 1.092596 0.000000 0.000000 0.000000 0.000000 0.000000 0.000000 11.002669 -0.940199 6.761266 -4.866268 11.332696 8.366748 -0.585476 2.498063 5.127259 3.587094 -27.082251 13.311717 4.581519 -16.593186 5.340073 5.611836 16.443806 -7.745816 -18.449820 -17.255966 -51.254903 116.004389 -40.635094 151.398094 0.000000 0.000000 0.000000 0.000000 0.000000 0.000000 1.994348 7.456478 12.416882 -5.560963 35.547125 61.269623 72.357318 60.647912 -65.632669 0.000000 0.000000 0.000000 0.000000 0.000000 0.000000 
0.000000 0.000000 0.000000 0.000000 0.000000 0.000000 -14.766635 2.310124 29.573994 13.999846 1.056573 1.061885 0.000000 0.000000 0.000000 0.000000 0.000000 0.000000 -37.534756 9.784110 -45.410980 114.397035 3.988191 0.886619 0.000000 0.000000 0.000000 0.000000 0.000000 0.000000 11.423429 -1.109176 6.885245 -4.969829 11.546919 8.300787 -0.524887 2.476227 5.216558 3.648819 -27.125244 13.184756 4.502635 -16.205464 5.432544 5.725641 16.940802 -7.847523 -18.868025 -17.057245 -51.426990 116.051449 -40.347792 151.852042 0.000000 0.000000 0.000000 0.000000 0.000000 0.000000 2.123008 7.193367 12.487796 -5.844373 35.707992 61.573211 72.109103 60.780739 -65.461682 0.000000 0.000000 0.000000 0.000000 0.000000 0.000000 
0.000000 0.000000 0.000000 0.000000 0.000000 0.000000 -14.794472 2.613394 30.213138 14.144028 1.262745 1.172374 0.000000 0.000000 0.000000 0.000000 0.000000 0.000000 -38.776016 10.577646 -45.524196 111.541797 4.093845 0.685823 0.000000 0.000000 0.000000 0.000000 0.000000 0.000000 11.962140 -1.243955 7.052403 -5.150775 11.764856 8.209771 -0.478016 2.522361 5.316870 3.607592 -27.077425 12.937074 4.426298 -15.875573 5.592517 5.699400 17.446202 -7.804337 -19.129195 -16.825538 -51.643864 116.100221 -40.095653 152.227819 0.000000 0.000000 0.000000 0.000000 0.000000 0.000000 2.247516 6.941167 12.479989 -6.210047 35.802243 61.958996 72.007769 60.897267 -65.275630 0.000000 0.000000 0.000000 0.000000 0.000000 0.000000 
0.000000 0.000000 0.000000 0.000000 0.000000 0.000000 -14.845981 2.949245 30.867797 14.256390 1.504599 1.256404 0.000000 0.000000 0.000000 0.000000 0.000000 0.000000 -40.019414 11.314286 -45.696889 107.906772 4.227393 0.563640 0.000000 0.000000 0.000000 0.000000 0.000000 0.000000 12.439701 -1.342212 7.283093 -5.242814 11.957148 8.084068 -0.416800 2.628119 5.427141 3.435452 -26.890349 12.577149 4.308323 -15.583153 5.803644 5.619268 17.832314 -7.643320 -19.262942 -16.578766 -51.874179 116.295553 -39.937378 152.653847 0.000000 0.000000 0.000000 0.000000 0.000000 0.000000 2.397595 6.797355 12.402909 -6.629280 35.818829 62.321187 71.946957 61.005069 -65.049046 0.000000 0.000000 0.000000 0.000000 0.000000 0.000000 
